<svg width="935" height="690" fill="none" xmlns="http://www.w3.org/2000/svg"><g filter="url(#filter0_d)"><path d="M468.44 324.299c19.415 0 35.154-15.739 35.154-35.154 0-19.415-15.739-35.155-35.154-35.155-19.416 0-35.155 15.74-35.155 35.155s15.739 35.154 35.155 35.154z" fill="#E61E5C"/></g><g filter="url(#filter1_d)"><path d="M644.836 149.36C598.69 82.516 536.202 45.702 468.876 45.7c-67.32.002-129.808 36.816-175.955 103.66-5.286 7.659-4.974 19.655.699 26.793 5.673 7.137 14.557 6.716 19.845-.943 40.775-59.066 95.968-91.595 155.416-91.596 59.443.001 114.636 32.53 155.411 91.596 2.766 4.005 6.515 6.032 10.275 6.032 3.428 0 6.865-1.686 9.57-5.089 5.673-7.139 5.986-19.134.699-26.793z" fill="#BE1069"/></g><g filter="url(#filter2_d)"><path d="M537.362 220.657c-18.267-24.434-44.452-39.612-68.337-39.612H467.992c-23.886 0-50.073 15.179-68.339 39.612-5.509 7.369-5.55 19.371-.092 26.809 2.745 3.741 6.36 5.615 9.974 5.615 3.572 0 7.145-1.828 9.882-5.49 13.004-17.395 32.07-28.632 48.577-28.632H469.023c16.504 0 35.572 11.238 48.574 28.632 5.509 7.368 14.4 7.314 19.857-.125 5.459-7.437 5.417-19.44-.092-26.809z" fill="#1777C0"/></g><g filter="url(#filter3_d)"><path d="M592.669 185.547C558.485 139.003 514.21 113.371 468 113.373c-46.221.001-90.496 25.634-124.67 72.175-5.474 7.455-5.439 19.495.077 26.892 5.517 7.397 14.426 7.35 19.9-.105 28.85-39.291 66.03-60.93 104.693-60.931 38.652-.002 75.833 21.638 104.693 60.933 2.751 3.745 6.369 5.62 9.988 5.62 3.583 0 7.168-1.839 9.913-5.519 5.516-7.398 5.549-19.437.075-26.891z" fill="#D28F7C"/></g><path d="M98.522 412.016h-.744l-7.068 18.476-11.904 29.884c-.827 2.149-1.695 3.596-2.604 4.34-.827.744-2.315 1.116-4.464 1.116h-4.712c-2.15 0-3.679-.372-4.588-1.116-.827-.744-1.653-2.191-2.48-4.34L47.93 430.988l-6.944-17.484h-.744v59.892c0 1.157-.207 1.901-.62 2.232-.413.248-1.157.372-2.232.372h-6.572c-.91 0-1.612-.124-2.108-.372-.496-.331-.744-1.075-.744-2.232v-77.5c0-2.149.455-3.803 1.364-4.96.91-1.24 2.687-1.86 5.332-1.86h3.844c1.901 0 3.39.331 4.464.992 1.075.661 2.067 2.108 2.976 4.34l15.996 40.424 7.192 18.848h.496l7.068-18.476 16.12-40.796c.91-2.232 1.901-3.679 2.976-4.34s2.563-.992 4.464-.992h3.844c2.645 0 4.423.62 5.332 1.86.909 1.157 1.364 2.811 1.364 4.96v77.5c0 1.157-.207 1.901-.62 2.232-.413.248-1.157.372-2.232.372h-6.572c-.909 0-1.612-.124-2.108-.372-.496-.331-.744-1.075-.744-2.232v-61.38zm85.853 31.124c0 11.077-2.522 19.551-7.564 25.42-4.96 5.869-12.318 8.804-22.072 8.804-9.507 0-16.74-2.811-21.7-8.432-4.878-5.704-7.316-14.177-7.316-25.42 0-5.456.744-10.292 2.232-14.508 1.488-4.216 3.554-7.771 6.2-10.664 2.645-2.893 5.745-5.084 9.3-6.572 3.637-1.488 7.522-2.232 11.656-2.232 9.589 0 16.864 2.976 21.824 8.928 4.96 5.869 7.44 14.095 7.44 24.676zm-12.276.372c0-3.059-.248-6.035-.744-8.928-.414-2.893-1.24-5.415-2.48-7.564-1.24-2.232-2.935-4.009-5.084-5.332-2.15-1.323-4.96-1.984-8.432-1.984-2.976 0-5.58.62-7.812 1.86-2.15 1.24-3.968 2.935-5.456 5.084-1.406 2.067-2.48 4.547-3.224 7.44-.662 2.811-.992 5.828-.992 9.052 0 3.637.248 6.944.744 9.92.578 2.893 1.529 5.415 2.852 7.564a13.916 13.916 0 005.208 4.836c2.232 1.157 4.96 1.736 8.184 1.736 3.306 0 6.034-.661 8.184-1.984 2.232-1.323 4.009-3.059 5.332-5.208 1.322-2.232 2.273-4.753 2.852-7.564.578-2.893.868-5.869.868-8.928zm25.975-30.752c0-.909.165-1.447.496-1.612.413-.248.992-.372 1.736-.372h7.688c.826 0 1.405.124 1.736.372.33.165.496.703.496 1.612v45.632h.496l9.176-14.756 18.228-28.644c.909-1.488 1.777-2.521 2.604-3.1.826-.661 2.19-.992 4.092-.992h3.472c1.653 0 2.976.413 3.968 1.24 1.074.827 1.612 2.191 1.612 4.092v57.784c0 .909-.166 1.488-.496 1.736-.331.165-.91.248-1.736.248h-7.688c-.744 0-1.323-.083-1.736-.248-.331-.248-.496-.827-.496-1.736v-44.888h-.744l-8.804 14.136-18.6 28.644c-.992 1.571-1.984 2.645-2.976 3.224-.91.579-2.15.868-3.72.868h-3.224c-1.654 0-3.018-.413-4.092-1.24-.992-.827-1.488-2.191-1.488-4.092V412.76zm27.28-8.556c-2.15 0-4.216-.372-6.2-1.116a25.097 25.097 0 01-5.456-2.976 33.341 33.341 0 01-4.836-4.216 57.931 57.931 0 01-4.092-5.084 5.45 5.45 0 01-.496-.992c-.083-.413.206-.909.868-1.488l2.728-2.356c.744-.496 1.24-.661 1.488-.496.248.083.702.372 1.364.868 2.48 2.563 5.042 4.629 7.688 6.2 2.645 1.488 5.125 2.232 7.44 2.232.909 0 1.86-.083 2.852-.248 1.074-.248 2.232-.703 3.472-1.364 1.24-.661 2.562-1.529 3.968-2.604 1.488-1.157 3.141-2.687 4.96-4.588.744-.661 1.24-.951 1.488-.868.33.083.702.289 1.116.62l2.728 2.232c.744.661 1.033 1.199.868 1.612-.083.413-.207.744-.372.992-3.72 4.877-7.44 8.391-11.16 10.54-3.72 2.067-7.192 3.1-10.416 3.1zm78.798 61.876a21.74 21.74 0 002.728-3.596c.744-1.24 1.364-2.645 1.86-4.216.496-1.571.909-3.307 1.24-5.208.413-1.984.826-4.299 1.24-6.944l4.34-28.768c.33-2.397 1.157-4.051 2.48-4.96 1.405-.992 3.389-1.488 5.952-1.488h30.132c2.976 0 4.836.62 5.58 1.86.744 1.157 1.116 2.687 1.116 4.588v48.856l3.72.372c1.818.165 2.893.744 3.224 1.736.413.992.578 1.86.496 2.604l-1.364 22.94c-.083.661-.248 1.075-.496 1.24-.248.248-.579.372-.992.372h-7.812c-.827 0-1.282-.537-1.364-1.612L355.364 476H309.98l-1.24 17.98c-.083 1.075-.579 1.612-1.488 1.612h-7.564a1.19 1.19 0 01-.868-.372c-.248-.165-.414-.579-.496-1.24l-1.488-22.94c-.083-1.157.124-2.149.62-2.976.496-.909 1.57-1.447 3.224-1.612l3.472-.372zm44.516-44.516h-22.444l-2.356 16.74a1053.14 1053.14 0 01-1.86 12.4c-.496 3.141-.992 5.663-1.488 7.564-.414 1.901-.868 3.431-1.364 4.588a21.524 21.524 0 01-1.86 3.224h31.372v-44.516zm87.703 21.576c0 11.077-2.522 19.551-7.564 25.42-4.96 5.869-12.318 8.804-22.072 8.804-9.507 0-16.74-2.811-21.7-8.432-4.878-5.704-7.316-14.177-7.316-25.42 0-5.456.744-10.292 2.232-14.508 1.488-4.216 3.554-7.771 6.2-10.664 2.645-2.893 5.745-5.084 9.3-6.572 3.637-1.488 7.522-2.232 11.656-2.232 9.589 0 16.864 2.976 21.824 8.928 4.96 5.869 7.44 14.095 7.44 24.676zm-12.276.372c0-3.059-.248-6.035-.744-8.928-.414-2.893-1.24-5.415-2.48-7.564-1.24-2.232-2.935-4.009-5.084-5.332-2.15-1.323-4.96-1.984-8.432-1.984-2.976 0-5.58.62-7.812 1.86-2.15 1.24-3.968 2.935-5.456 5.084-1.406 2.067-2.48 4.547-3.224 7.44-.662 2.811-.992 5.828-.992 9.052 0 3.637.248 6.944.744 9.92.578 2.893 1.529 5.415 2.852 7.564a13.916 13.916 0 005.208 4.836c2.232 1.157 4.96 1.736 8.184 1.736 3.306 0 6.034-.661 8.184-1.984 2.232-1.323 4.009-3.059 5.332-5.208 1.322-2.232 2.273-4.753 2.852-7.564.578-2.893.868-5.869.868-8.928zm37.755-12.028v42.532c0 .909-.166 1.488-.496 1.736-.331.165-.91.248-1.736.248h-7.316c-.744 0-1.323-.083-1.736-.248-.331-.248-.496-.827-.496-1.736v-58.032c0-1.24.413-2.397 1.24-3.472.826-1.075 2.273-1.612 4.34-1.612h4.464c1.57 0 2.769.248 3.596.744.909.496 1.777 1.571 2.604 3.224l11.904 24.924 7.316 15.996h.372l8.184-17.732 11.16-23.188c.826-1.653 1.653-2.728 2.48-3.224.826-.496 2.066-.744 3.72-.744h4.34c2.066 0 3.513.579 4.34 1.736.826 1.075 1.24 2.191 1.24 3.348v58.032c0 .909-.166 1.488-.496 1.736-.331.165-.91.248-1.736.248h-7.316c-.744 0-1.323-.083-1.736-.248-.331-.248-.496-.827-.496-1.736v-43.648h-.62l-6.572 14.508-9.176 19.344c-.744 1.571-1.488 2.645-2.232 3.224-.744.579-1.984.868-3.72.868h-3.1c-1.654 0-2.894-.289-3.72-.868-.744-.579-1.488-1.653-2.232-3.224l-8.804-17.98-6.944-14.756h-.62zm127.109 38.068c0 1.736-.702 2.935-2.108 3.596-3.72 1.653-7.812 2.769-12.276 3.348-4.381.579-8.556.868-12.524.868-5.373 0-9.837-.537-13.392-1.612-3.472-1.157-6.241-2.687-8.308-4.588-1.984-1.901-3.389-4.092-4.216-6.572a28.32 28.32 0 01-1.116-7.936c0-2.728.455-5.415 1.364-8.06.91-2.645 2.398-5.001 4.464-7.068 2.15-2.149 5.002-3.844 8.556-5.084 3.555-1.323 7.936-1.984 13.144-1.984h14.136v-2.232c0-1.819-.206-3.472-.62-4.96a7.681 7.681 0 00-2.108-3.844c-.992-1.075-2.397-1.901-4.216-2.48-1.818-.579-4.174-.868-7.068-.868-1.488 0-3.058.083-4.712.248-1.57.165-3.141.372-4.712.62a67.002 67.002 0 00-4.34.868 43.547 43.547 0 00-3.348.744c-.826.248-1.446.331-1.86.248-.413-.083-.702-.496-.868-1.24l-1.612-6.076c-.33-1.157.042-1.943 1.116-2.356 3.307-1.323 7.027-2.232 11.16-2.728 4.216-.579 7.978-.868 11.284-.868 8.432 0 14.55 1.943 18.352 5.828 3.886 3.803 5.828 9.217 5.828 16.244v37.944zm-12.4-24.676h-13.268c-1.488 0-3.182.124-5.084.372a14.475 14.475 0 00-5.208 1.488c-1.57.744-2.934 1.901-4.092 3.472-1.074 1.571-1.612 3.72-1.612 6.448 0 4.051 1.323 6.861 3.968 8.432 2.646 1.488 6.2 2.232 10.664 2.232h2.728a71.302 71.302 0 003.72-.372 81.814 81.814 0 004.092-.62 41.504 41.504 0 004.092-1.116v-20.336zm117.419 23.932c0 2.397-.579 4.216-1.736 5.456-1.158 1.157-2.728 1.736-4.712 1.736h-76.136c-1.902 0-3.431-.579-4.588-1.736-1.158-1.24-1.736-3.059-1.736-5.456v-55.552c0-.992.206-1.612.62-1.86.413-.331 1.074-.496 1.984-.496h6.944c1.074 0 1.777.165 2.108.496.33.248.496.868.496 1.86v52.824h26.412v-52.824c0-.992.206-1.612.62-1.86.413-.331 1.074-.496 1.984-.496h6.696c.909 0 1.57.165 1.984.496.496.248.744.868.744 1.86v52.824h26.164v-52.824c0-.992.206-1.612.62-1.86.496-.331 1.198-.496 2.108-.496h6.82c.909 0 1.57.165 1.984.496.413.248.62.868.62 1.86v55.552zm28.356 4.712c0 1.075-.207 1.777-.62 2.108-.413.248-1.075.372-1.984.372h-6.944c-.909 0-1.612-.124-2.108-.372-.413-.331-.62-1.033-.62-2.108v-60.264c0-.992.207-1.612.62-1.86.496-.331 1.199-.496 2.108-.496h6.944c.909 0 1.571.165 1.984.496.413.248.62.868.62 1.86v22.568h30.008v-22.568c0-.992.207-1.612.62-1.86.413-.331 1.075-.496 1.984-.496h6.944c.992 0 1.653.165 1.984.496.331.248.496.868.496 1.86v60.264c0 1.075-.165 1.777-.496 2.108-.331.248-.992.372-1.984.372h-6.944c-.909 0-1.571-.124-1.984-.372-.413-.331-.62-1.033-.62-2.108v-27.404h-30.008v27.404zm58.201-60.76c0-.909.165-1.447.496-1.612.413-.248.992-.372 1.736-.372h7.688c.826 0 1.405.124 1.736.372.33.165.496.703.496 1.612v45.632h.496l9.176-14.756 18.228-28.644c.909-1.488 1.777-2.521 2.604-3.1.826-.661 2.19-.992 4.092-.992h3.472c1.653 0 2.976.413 3.968 1.24 1.074.827 1.612 2.191 1.612 4.092v57.784c0 .909-.166 1.488-.496 1.736-.331.165-.91.248-1.736.248h-7.688c-.744 0-1.323-.083-1.736-.248-.331-.248-.496-.827-.496-1.736v-44.888h-.744l-8.804 14.136-18.6 28.644c-.992 1.571-1.984 2.645-2.976 3.224-.91.579-2.15.868-3.72.868h-3.224c-1.654 0-3.018-.413-4.092-1.24-.992-.827-1.488-2.191-1.488-4.092V412.76zm71.929 0c0-.909.166-1.447.496-1.612.414-.248.992-.372 1.736-.372h7.688c.827 0 1.406.124 1.736.372.331.165.496.703.496 1.612v45.632h.496l9.176-14.756 18.228-28.644c.91-1.488 1.778-2.521 2.604-3.1.827-.661 2.191-.992 4.092-.992h3.472c1.654 0 2.976.413 3.968 1.24 1.075.827 1.612 2.191 1.612 4.092v57.784c0 .909-.165 1.488-.496 1.736-.33.165-.909.248-1.736.248h-7.688c-.744 0-1.322-.083-1.736-.248-.33-.248-.496-.827-.496-1.736v-44.888h-.744l-8.804 14.136-18.6 28.644c-.992 1.571-1.984 2.645-2.976 3.224-.909.579-2.149.868-3.72.868h-3.224c-1.653 0-3.017-.413-4.092-1.24-.992-.827-1.488-2.191-1.488-4.092V412.76zm27.28-8.556c-2.149 0-4.216-.372-6.2-1.116a25.12 25.12 0 01-5.456-2.976 33.341 33.341 0 01-4.836-4.216 57.931 57.931 0 01-4.092-5.084 5.582 5.582 0 01-.496-.992c-.082-.413.207-.909.868-1.488l2.728-2.356c.744-.496 1.24-.661 1.488-.496.248.083.703.372 1.364.868 2.48 2.563 5.043 4.629 7.688 6.2 2.646 1.488 5.126 2.232 7.44 2.232.91 0 1.86-.083 2.852-.248 1.075-.248 2.232-.703 3.472-1.364 1.24-.661 2.563-1.529 3.968-2.604 1.488-1.157 3.142-2.687 4.96-4.588.744-.661 1.24-.951 1.488-.868.331.083.703.289 1.116.62l2.728 2.232c.744.661 1.034 1.199.868 1.612-.082.413-.206.744-.372.992-3.72 4.877-7.44 8.391-11.16 10.54-3.72 2.067-7.192 3.1-10.416 3.1zM211.333 561.76c0-.909.166-1.447.496-1.612.414-.248.992-.372 1.736-.372h7.688c.827 0 1.406.124 1.736.372.331.165.496.703.496 1.612v45.632h.496l9.176-14.756 18.228-28.644c.91-1.488 1.778-2.521 2.604-3.1.827-.661 2.191-.992 4.092-.992h3.472c1.654 0 2.976.413 3.968 1.24 1.075.827 1.612 2.191 1.612 4.092v57.784c0 .909-.165 1.488-.496 1.736-.33.165-.909.248-1.736.248h-7.688c-.744 0-1.322-.083-1.736-.248-.33-.248-.496-.827-.496-1.736v-44.888h-.744l-8.804 14.136-18.6 28.644c-.992 1.571-1.984 2.645-2.976 3.224-.909.579-2.149.868-3.72.868h-3.224c-1.653 0-3.017-.413-4.092-1.24-.992-.827-1.488-2.191-1.488-4.092V561.76zm84.206 60.76c0 1.075-.207 1.777-.62 2.108-.413.248-1.075.372-1.984.372h-6.944c-.909 0-1.612-.124-2.108-.372-.413-.331-.62-1.033-.62-2.108v-60.264c0-.992.207-1.612.62-1.86.496-.331 1.199-.496 2.108-.496h6.944c.909 0 1.571.165 1.984.496.413.248.62.868.62 1.86v22.568h30.008v-22.568c0-.992.207-1.612.62-1.86.413-.331 1.075-.496 1.984-.496h6.944c.992 0 1.653.165 1.984.496.331.248.496.868.496 1.86v60.264c0 1.075-.165 1.777-.496 2.108-.331.248-.992.372-1.984.372h-6.944c-.909 0-1.571-.124-1.984-.372-.413-.331-.62-1.033-.62-2.108v-27.404h-30.008v27.404zm84.365 0c0 1.075-.207 1.777-.62 2.108-.331.248-.951.372-1.86.372h-6.82c-.91 0-1.571-.124-1.984-.372-.414-.331-.62-1.033-.62-2.108v-52.204h-18.6c-1.075 0-1.778-.207-2.108-.62-.248-.413-.372-.992-.372-1.736v-5.456c0-.827.124-1.447.372-1.86.33-.496 1.033-.744 2.108-.744h49.972c1.074 0 1.736.248 1.984.744.33.413.496 1.033.496 1.86v5.456c0 .744-.166 1.323-.496 1.736-.248.413-.91.62-1.984.62h-19.468v52.204zm54.016-63.984c4.712 0 8.763.661 12.152 1.984 3.472 1.24 6.324 3.059 8.556 5.456 2.232 2.315 3.886 5.167 4.96 8.556 1.075 3.307 1.612 6.985 1.612 11.036 0 2.149-.289 3.927-.868 5.332-.578 1.323-1.322 2.397-2.232 3.224-.909.744-2.025 1.281-3.348 1.612-1.24.331-2.521.496-3.844.496H417.18c.083 3.637.62 6.696 1.612 9.176.992 2.48 2.356 4.505 4.092 6.076a17.6 17.6 0 005.952 3.348c2.232.661 4.63.992 7.192.992 2.728 0 5.415-.372 8.06-1.116 2.728-.744 4.919-1.571 6.572-2.48 1.24-.579 2.108-.331 2.604.744l2.976 5.828c.579 1.323.331 2.273-.744 2.852-3.141 1.901-6.489 3.141-10.044 3.72-3.554.661-6.985.992-10.292.992-9.506 0-16.946-2.645-22.32-7.936-5.29-5.373-7.936-13.929-7.936-25.668 0-5.456.744-10.292 2.232-14.508 1.488-4.216 3.514-7.771 6.076-10.664 2.646-2.976 5.704-5.208 9.176-6.696 3.555-1.571 7.399-2.356 11.532-2.356zm15.748 28.024c0-2.48-.248-4.795-.744-6.944-.413-2.149-1.198-4.009-2.356-5.58-1.157-1.653-2.769-2.935-4.836-3.844-1.984-.992-4.546-1.488-7.688-1.488-2.562 0-4.836.537-6.82 1.612a15.248 15.248 0 00-5.084 4.092c-1.322 1.653-2.397 3.555-3.224 5.704a21.253 21.253 0 00-1.24 6.448h31.992zm81.343 5.828c0 4.629-.62 9.011-1.86 13.144-1.157 4.051-2.934 7.647-5.332 10.788-2.397 3.059-5.414 5.497-9.052 7.316-3.637 1.819-7.853 2.728-12.648 2.728-2.149 0-4.505-.124-7.068-.372-2.48-.248-5.208-.744-8.184-1.488v23.56c0 .909-.165 1.447-.496 1.612-.33.248-.909.372-1.736.372h-7.812c-.744 0-1.322-.124-1.736-.372-.33-.165-.496-.703-.496-1.612V565.48c0-1.157.538-1.943 1.612-2.356 4.216-1.819 8.515-3.017 12.896-3.596 4.464-.661 8.68-.992 12.648-.992 5.043 0 9.424.868 13.144 2.604 3.72 1.736 6.738 4.133 9.052 7.192 2.398 3.059 4.175 6.655 5.332 10.788 1.158 4.133 1.736 8.556 1.736 13.268zm-12.648 0c0-8.515-1.653-14.549-4.96-18.104-3.306-3.555-7.853-5.332-13.64-5.332-1.984 0-4.257.207-6.82.62-2.48.331-4.505.827-6.076 1.488v42.904c2.894.744 5.332 1.24 7.316 1.488 2.067.248 4.051.372 5.952.372 2.646 0 5.084-.372 7.316-1.116a13.72 13.72 0 005.704-3.968c1.654-1.819 2.935-4.216 3.844-7.192.91-2.976 1.364-6.696 1.364-11.16zm38.618 30.132c0 1.075-.207 1.777-.62 2.108-.414.248-1.075.372-1.984.372h-6.944c-.91 0-1.612-.124-2.108-.372-.414-.331-.62-1.033-.62-2.108v-60.264c0-.992.206-1.612.62-1.86.496-.331 1.198-.496 2.108-.496h6.944c.909 0 1.57.165 1.984.496.413.248.62.868.62 1.86v22.568h30.008v-22.568c0-.992.206-1.612.62-1.86.413-.331 1.074-.496 1.984-.496h6.944c.992 0 1.653.165 1.984.496.33.248.496.868.496 1.86v60.264c0 1.075-.166 1.777-.496 2.108-.331.248-.992.372-1.984.372h-6.944c-.91 0-1.571-.124-1.984-.372-.414-.331-.62-1.033-.62-2.108v-27.404h-30.008v27.404zm84.736-63.984c4.712 0 8.763.661 12.152 1.984 3.472 1.24 6.324 3.059 8.556 5.456 2.232 2.315 3.885 5.167 4.96 8.556 1.075 3.307 1.612 6.985 1.612 11.036 0 2.149-.289 3.927-.868 5.332-.579 1.323-1.323 2.397-2.232 3.224-.909.744-2.025 1.281-3.348 1.612-1.24.331-2.521.496-3.844.496h-33.728c.083 3.637.62 6.696 1.612 9.176.992 2.48 2.356 4.505 4.092 6.076a17.6 17.6 0 005.952 3.348c2.232.661 4.629.992 7.192.992 2.728 0 5.415-.372 8.06-1.116 2.728-.744 4.919-1.571 6.572-2.48 1.24-.579 2.108-.331 2.604.744l2.976 5.828c.579 1.323.331 2.273-.744 2.852-3.141 1.901-6.489 3.141-10.044 3.72-3.555.661-6.985.992-10.292.992-9.507 0-16.947-2.645-22.32-7.936-5.291-5.373-7.936-13.929-7.936-25.668 0-5.456.744-10.292 2.232-14.508 1.488-4.216 3.513-7.771 6.076-10.664 2.645-2.976 5.704-5.208 9.176-6.696 3.555-1.571 7.399-2.356 11.532-2.356zm15.748 28.024c0-2.48-.248-4.795-.744-6.944-.413-2.149-1.199-4.009-2.356-5.58-1.157-1.653-2.769-2.935-4.836-3.844-1.984-.992-4.547-1.488-7.688-1.488-2.563 0-4.836.537-6.82 1.612a15.238 15.238 0 00-5.084 4.092c-1.323 1.653-2.397 3.555-3.224 5.704a21.253 21.253 0 00-1.24 6.448h31.992zm51.087 35.96c0 1.075-.207 1.777-.62 2.108-.331.248-.951.372-1.86.372h-6.82c-.909 0-1.571-.124-1.984-.372-.413-.331-.62-1.033-.62-2.108v-52.204h-18.6c-1.075 0-1.777-.207-2.108-.62-.248-.413-.372-.992-.372-1.736v-5.456c0-.827.124-1.447.372-1.86.331-.496 1.033-.744 2.108-.744h49.972c1.075 0 1.736.248 1.984.744.331.413.496 1.033.496 1.86v5.456c0 .744-.165 1.323-.496 1.736-.248.413-.909.62-1.984.62h-19.468v52.204z" fill="#000"/><defs><filter id="filter0_d" x="429.285" y="253.99" width="78.309" height="78.309" filterUnits="userSpaceOnUse" color-interpolation-filters="sRGB"><feFlood flood-opacity="0" result="BackgroundImageFix"/><feColorMatrix in="SourceAlpha" values="0 0 0 0 0 0 0 0 0 0 0 0 0 0 0 0 0 0 127 0"/><feOffset dy="4"/><feGaussianBlur stdDeviation="2"/><feColorMatrix values="0 0 0 0 0 0 0 0 0 0 0 0 0 0 0 0 0 0 0.25 0"/><feBlend in2="BackgroundImageFix" result="effect1_dropShadow"/><feBlend in="SourceGraphic" in2="effect1_dropShadow" result="shape"/></filter><filter id="filter1_d" x="285.152" y="45.701" width="367.453" height="143.541" filterUnits="userSpaceOnUse" color-interpolation-filters="sRGB"><feFlood flood-opacity="0" result="BackgroundImageFix"/><feColorMatrix in="SourceAlpha" values="0 0 0 0 0 0 0 0 0 0 0 0 0 0 0 0 0 0 127 0"/><feOffset dy="4"/><feGaussianBlur stdDeviation="2"/><feColorMatrix values="0 0 0 0 0 0 0 0 0 0 0 0 0 0 0 0 0 0 0.25 0"/><feBlend in2="BackgroundImageFix" result="effect1_dropShadow"/><feBlend in="SourceGraphic" in2="effect1_dropShadow" result="shape"/></filter><filter id="filter2_d" x="391.494" y="181.045" width="154.027" height="80.036" filterUnits="userSpaceOnUse" color-interpolation-filters="sRGB"><feFlood flood-opacity="0" result="BackgroundImageFix"/><feColorMatrix in="SourceAlpha" values="0 0 0 0 0 0 0 0 0 0 0 0 0 0 0 0 0 0 127 0"/><feOffset dy="4"/><feGaussianBlur stdDeviation="2"/><feColorMatrix values="0 0 0 0 0 0 0 0 0 0 0 0 0 0 0 0 0 0 0.25 0"/><feBlend in2="BackgroundImageFix" result="effect1_dropShadow"/><feBlend in="SourceGraphic" in2="effect1_dropShadow" result="shape"/></filter><filter id="filter3_d" x="335.247" y="113.373" width="265.506" height="112.584" filterUnits="userSpaceOnUse" color-interpolation-filters="sRGB"><feFlood flood-opacity="0" result="BackgroundImageFix"/><feColorMatrix in="SourceAlpha" values="0 0 0 0 0 0 0 0 0 0 0 0 0 0 0 0 0 0 127 0"/><feOffset dy="4"/><feGaussianBlur stdDeviation="2"/><feColorMatrix values="0 0 0 0 0 0 0 0 0 0 0 0 0 0 0 0 0 0 0.25 0"/><feBlend in2="BackgroundImageFix" result="effect1_dropShadow"/><feBlend in="SourceGraphic" in2="effect1_dropShadow" result="shape"/></filter></defs></svg>